<?xml version="1.0" encoding="UTF-8" standalone="no"?>
<!-- Created with Inkscape (http://www.inkscape.org/) -->

<svg
   width="47.625mm"
   height="10.583333mm"
   viewBox="0 0 47.625 10.583333"
   version="1.1"
   id="svg5"
   sodipodi:docname="upiyluLogo3.svg"
   inkscape:version="1.1 (c4e8f9e, 2021-05-24)"
   xmlns:inkscape="http://www.inkscape.org/namespaces/inkscape"
   xmlns:sodipodi="http://sodipodi.sourceforge.net/DTD/sodipodi-0.dtd"
   xmlns="http://www.w3.org/2000/svg"
   xmlns:svg="http://www.w3.org/2000/svg">
  <sodipodi:namedview
     id="namedview17"
     pagecolor="#ffffff"
     bordercolor="#999999"
     borderopacity="1"
     inkscape:pageshadow="0"
     inkscape:pageopacity="0"
     inkscape:pagecheckerboard="0"
     inkscape:document-units="mm"
     showgrid="true"
     inkscape:snap-bbox="true"
     inkscape:snap-bbox-edge-midpoints="false"
     inkscape:bbox-nodes="true"
     inkscape:snap-bbox-midpoints="false"
     inkscape:zoom="2.4526754"
     inkscape:cx="94.590586"
     inkscape:cy="12.639259"
     inkscape:window-width="1296"
     inkscape:window-height="778"
     inkscape:window-x="0"
     inkscape:window-y="25"
     inkscape:window-maximized="0"
     inkscape:current-layer="layer3"
     fit-margin-top="0"
     fit-margin-left="0"
     fit-margin-right="0"
     fit-margin-bottom="0"
     inkscape:snap-smooth-nodes="true"
     inkscape:bbox-paths="false"
     inkscape:snap-others="false"
     inkscape:snap-nodes="false" />
  <defs
     id="defs2" />
  <g
     inkscape:groupmode="layer"
     id="layer2"
     inkscape:label="Layer 1"
     style="display:none;opacity:0.442308">
    <g
       id="layer1"
       transform="translate(-17.197916,-129.64583)">
      <path
         style="fill:#000000;fill-opacity:1;stroke:none;stroke-width:0.264583px;stroke-linecap:butt;stroke-linejoin:miter;stroke-opacity:1"
         d="m 75.406249,129.64583 v 2.64583 h -2.645833 v 2.64584 h -2.645834 v 2.64583 h 2.645834 v 2.64583 h 2.645833 v -5.29166 h 2.645833 v 5.29166 h 2.645834 v -2.64583 h 2.645833 v -2.64583 h -2.645833 v -2.64584 h -2.645834 v -2.64583 z"
         id="path907" />
    </g>
    <path
       style="fill:#000000;fill-opacity:1;stroke:none;stroke-width:0.264583px;stroke-linecap:butt;stroke-linejoin:miter;stroke-opacity:1"
       d="m 47.624999,5.2916667 v -2.645833 h -2.645833 v 2.645833 z"
       id="path4027" />
    <path
       style="fill:#000000;fill-opacity:1;stroke:none;stroke-width:0.264583px;stroke-linecap:butt;stroke-linejoin:miter;stroke-opacity:1"
       d="m 31.749999,5.2916667 v -2.645833 h -2.645833 v 2.645833 z"
       id="path4027-3" />
    <path
       style="fill:#000000;fill-opacity:1;stroke:none;stroke-width:0.264583px;stroke-linecap:butt;stroke-linejoin:miter;stroke-opacity:1"
       d="m 29.104166,7.9375007 v -2.645834 h -2.645833 v 2.645834 z"
       id="path4027-5" />
    <path
       style="fill:#000000;fill-opacity:1;stroke:none;stroke-width:0.264583px;stroke-linecap:butt;stroke-linejoin:miter;stroke-opacity:1"
       d="M 26.458332,10.583334 V 7.9375007 h -2.645833 v 2.6458333 z"
       id="path4027-58" />
    <path
       style="fill:#000000;fill-opacity:1;stroke:none;stroke-width:0.264583px;stroke-linecap:butt;stroke-linejoin:miter;stroke-opacity:1"
       d="M 26.458333,5.2916667 V 2.6458337 H 23.8125 v 2.645833 z"
       id="path4027-1" />
    <path
       style="fill:#000000;fill-opacity:1;stroke:none;stroke-width:0.264583px;stroke-linecap:butt;stroke-linejoin:miter;stroke-opacity:1"
       d="M 2.6458317,5.2916667 V 2.6458337 H -1.3033333e-6 v 2.645833 z"
       id="path4027-1-1" />
    <path
       style="fill:#000000;fill-opacity:1;stroke:none;stroke-width:0.264583px;stroke-linecap:butt;stroke-linejoin:miter;stroke-opacity:1"
       d="m 44.979166,5.2916667 h -2.645833 v -2.645833 h -2.645834 v 5.291667 h 5.291667 z"
       id="path4095" />
    <path
       style="fill:#000000;fill-opacity:1;stroke:none;stroke-width:0.264583px;stroke-linecap:butt;stroke-linejoin:miter;stroke-opacity:1"
       d="M 37.041666,7.9375007 V 2.6458337 3.6666666e-7 H 34.395833 V 7.9375007 Z"
       id="path4163" />
    <path
       style="fill:#000000;fill-opacity:1;stroke:none;stroke-width:0.264583px;stroke-linecap:butt;stroke-linejoin:miter;stroke-opacity:1"
       d="m 21.166666,2.6458337 v 5.291667 h -2.645833 v -5.291667 z"
       id="path4390" />
    <path
       style="fill:#000000;fill-opacity:1;stroke:none;stroke-width:0.264583px;stroke-linecap:butt;stroke-linejoin:miter;stroke-opacity:1"
       d="m 15.875,2.6458337 v 5.291667 H 13.229166 V 10.583334 H 10.583333 V 2.6458337 Z"
       id="path4458" />
    <path
       style="fill:#000000;fill-opacity:1;stroke:none;stroke-width:0.264583px;stroke-linecap:butt;stroke-linejoin:miter;stroke-opacity:1"
       d="m 7.9374997,2.6458337 v 5.291667 h -5.291667 v -2.645834 h 2.645834 v -2.645833 z"
       id="path4526" />
  </g>
  <g
     inkscape:groupmode="layer"
     id="layer3"
     inkscape:label="Layer 2">
    <path
       style="fill:#000000;fill-opacity:1;stroke:none;stroke-width:0.264583px;stroke-linecap:butt;stroke-linejoin:miter;stroke-opacity:1"
       d="m 0.79375,5.2916667 c 0,0 -0.79375,0 -0.79375,-0.79375 V 3.4395833 c 0,0 0,-0.79375 0.79375,-0.79375 h 1.0583333 c 0,0 0.79375,0 0.79375,0.79375 v 1.0583334 c 0,0 0,0.79375 0.79375,0.79375 h 1.0583334 c 0,0 0.79375,0 0.79375,-0.79375 V 3.4395833 c 0,0 0,-0.79375 0.79375,-0.79375 H 7.14375 c 0,0 0.79375,0 0.79375,0.79375 V 7.14375 c 0,0 0,0.79375 -0.79375,0.79375 H 3.4395833 c 0,0 -0.79375,0 -0.79375,-0.79375 0,-1.7991052 0,-0.6173611 0,-1.0583333 0,0 0,-0.7937501 -0.79375,-0.79375 z"
       id="path1033"
       sodipodi:nodetypes="cscscscscscscscscscsc" />
    <path
       style="fill:#000000;fill-opacity:1;stroke:none;stroke-width:0.264583px;stroke-linecap:butt;stroke-linejoin:miter;stroke-opacity:1"
       d="m 46.83125,5.2916667 c 0,0 0.79375,0 0.79375,-0.79375 V 3.4395833 c 0,0 0,-0.79375 -0.79375,-0.79375 h -1.058333 c 0,0 -0.79375,0 -0.79375,0.79375 v 1.0583334 c 0,0 0,0.79375 -0.79375,0.79375 h -1.058334 c 0,0 -0.79375,0 -0.79375,-0.79375 V 3.4395833 c 0,0 0,-0.79375 -0.79375,-0.79375 H 40.48125 c 0,0 -0.79375,0 -0.79375,0.79375 V 7.14375 c 0,0 0,0.79375 0.79375,0.79375 h 3.704167 c 0,0 0.79375,0 0.79375,-0.79375 0,-1.7991052 0,-0.6173611 0,-1.0583333 0,0 0,-0.7937501 0.79375,-0.79375 z"
       id="path1033-9"
       sodipodi:nodetypes="cscscscscscscscscscsc" />
    <path
       style="fill:#000000;fill-opacity:1;stroke:none;stroke-width:0.264583px;stroke-linecap:butt;stroke-linejoin:miter;stroke-opacity:1"
       d="m 11.377083,10.583333 c 0,0 -0.79375,0 -0.79375,-0.7937497 v -6.35 c 0,0 0,-0.79375 0.79375,-0.79375 l 3.704167,0 c 0,0 0.79375,0 0.79375,0.79375 V 7.14375 c 0,0 0,0.79375 -0.79375,0.79375 h -1.058333 c 0,0 -0.79375,0 -0.79375,0.79375 v 1.0583333 c 0,0 0,0.7937497 -0.79375,0.7937497 z"
       id="path1214"
       sodipodi:nodetypes="cscscscscscsc" />
    <path
       style="fill:#000000;fill-opacity:1;stroke:none;stroke-width:0.264583px;stroke-linecap:butt;stroke-linejoin:miter;stroke-opacity:1"
       d="m 19.314583,2.6458333 h 1.058334 c 0,0 0.79375,0 0.79375,0.79375 V 7.14375 c 0,0 0,0.79375 -0.79375,0.79375 h -1.058334 c 0,0 -0.79375,0 -0.79375,-0.79375 V 3.4395833 c 0,0 0,-0.79375 0.79375,-0.79375 z"
       id="path1282"
       sodipodi:nodetypes="scscscscs" />
    <path
       style="fill:#000000;fill-opacity:1;stroke:none;stroke-width:0.264583px;stroke-linecap:butt;stroke-linejoin:miter;stroke-opacity:1"
       d="m 24.60625,2.6458333 c 0,0 -0.79375,0 -0.79375,0.79375 v 1.0583334 c 0,0 0,0.79375 0.79375,0.79375 h 1.058333 c 0,0 0.79375,0 0.79375,0.79375 V 7.14375 c 0,0 0,0.79375 -0.79375,0.79375 H 24.60625 c 0,0 -0.79375,0 -0.79375,0.79375 v 1.0583333 c 0,0 0,0.7937497 0.79375,0.7937497 h 1.058333 c 0,0 0.79375,0 0.79375,-0.7937497 V 8.73125 c 0,0 0,-0.79375 0.79375,-0.79375 h 1.058334 c 0,0 0.79375,0 0.79375,-0.79375 0,-1.5559234 -1e-6,-0.6173612 0,-1.0583333 0,0 0,-0.79375 0.79375,-0.79375 h 1.058333 c 0,0 0.79375,0 0.79375,-0.79375 V 3.4395833 c 0,0 0,-0.79375 -0.79375,-0.79375 h -1.058333 c 0,0 -0.79375,0 -0.79375,0.79375 v 1.0583334 c 0,0 0,0.79375 -0.79375,0.79375 h -1.058334 c 0,0 -0.79375,0 -0.79375,-0.79375 V 3.4395833 c 0,0 0,-0.79375 -0.79375,-0.79375 z"
       id="path1350"
       sodipodi:nodetypes="cscscscscscscscscscscscscscscscsc" />
    <path
       style="fill:#000000;fill-opacity:1;stroke:none;stroke-width:0.264583px;stroke-linecap:butt;stroke-linejoin:miter;stroke-opacity:1"
       d="m 35.189583,7.9375 c 0,0 -0.79375,0 -0.79375,-0.79375 0,-28.499543 0,-4.0569445 0,-6.35 0,0 0,-0.79375 0.79375,-0.79375 h 1.058334 c 0,0 0.79375,0 0.79375,0.79375 v 6.35 c 0,0 0,0.79375 -0.79375,0.79375 z"
       id="path1766"
       sodipodi:nodetypes="cscscscsc" />
  </g>
</svg>
