<?xml version="1.0" encoding="UTF-8" standalone="no"?>
<!-- Created with Inkscape (http://www.inkscape.org/) -->

<svg
   width="66.145836mm"
   height="10.583333mm"
   viewBox="0 0 66.145836 10.583333"
   version="1.1"
   id="svg5"
   xmlns="http://www.w3.org/2000/svg"
   xmlns:svg="http://www.w3.org/2000/svg">
  <defs
     id="defs2" />
  <g
     id="layer1"
     transform="translate(-17.197915,-129.64583)">
    <path
       style="fill:#000000;fill-opacity:1;stroke:none;stroke-width:0.264583px;stroke-linecap:butt;stroke-linejoin:miter;stroke-opacity:1"
       d="m 75.406249,129.64583 v 2.64583 h -2.645833 v 2.64584 h -2.645834 v 2.64583 h 2.645834 v 2.64583 h 2.645833 v -5.29166 h 2.645833 v 5.29166 h 2.645834 v -2.64583 h 2.645833 v -2.64583 h -2.645833 v -2.64584 h -2.645834 v -2.64583 z"
       id="path907" />
  </g>
  <path
     style="fill:#000000;fill-opacity:1;stroke:none;stroke-width:0.264583px;stroke-linecap:butt;stroke-linejoin:miter;stroke-opacity:1"
     d="M 47.625,5.2916666 V 2.6458333 h -2.645833 v 2.6458333 z"
     id="path4027" />
  <path
     style="fill:#000000;fill-opacity:1;stroke:none;stroke-width:0.264583px;stroke-linecap:butt;stroke-linejoin:miter;stroke-opacity:1"
     d="M 31.75,5.2916667 V 2.6458334 h -2.645833 v 2.6458333 z"
     id="path4027-3" />
  <path
     style="fill:#000000;fill-opacity:1;stroke:none;stroke-width:0.264583px;stroke-linecap:butt;stroke-linejoin:miter;stroke-opacity:1"
     d="M 29.104167,7.9375 V 5.2916667 H 26.458334 V 7.9375 Z"
     id="path4027-5" />
  <path
     style="fill:#000000;fill-opacity:1;stroke:none;stroke-width:0.264583px;stroke-linecap:butt;stroke-linejoin:miter;stroke-opacity:1"
     d="M 26.458333,10.583333 V 7.9375 H 23.8125 v 2.645833 z"
     id="path4027-58" />
  <path
     style="fill:#000000;fill-opacity:1;stroke:none;stroke-width:0.264583px;stroke-linecap:butt;stroke-linejoin:miter;stroke-opacity:1"
     d="M 26.458334,5.2916667 V 2.6458334 h -2.645833 v 2.6458333 z"
     id="path4027-1" />
  <path
     style="fill:#000000;fill-opacity:1;stroke:none;stroke-width:0.264583px;stroke-linecap:butt;stroke-linejoin:miter;stroke-opacity:1"
     d="M 2.645833,5.2916667 V 2.6458334 H 0 v 2.6458333 z"
     id="path4027-1-1" />
  <path
     style="fill:#000000;fill-opacity:1;stroke:none;stroke-width:0.264583px;stroke-linecap:butt;stroke-linejoin:miter;stroke-opacity:1"
     d="M 44.979167,5.2916666 H 42.333334 V 2.6458333 H 39.6875 v 5.2916666 h 5.291667 z"
     id="path4095" />
  <path
     style="fill:#000000;fill-opacity:1;stroke:none;stroke-width:0.264583px;stroke-linecap:butt;stroke-linejoin:miter;stroke-opacity:1"
     d="M 37.041667,7.9374999 V 2.6458333 0 h -2.645833 v 7.9374999 z"
     id="path4163" />
  <path
     style="fill:#000000;fill-opacity:1;stroke:none;stroke-width:0.264583px;stroke-linecap:butt;stroke-linejoin:miter;stroke-opacity:1"
     d="M 21.166667,2.6458333 V 7.9374999 H 18.520834 V 2.6458333 Z"
     id="path4390" />
  <path
     style="fill:#000000;fill-opacity:1;stroke:none;stroke-width:0.264583px;stroke-linecap:butt;stroke-linejoin:miter;stroke-opacity:1"
     d="M 15.875001,2.6458333 V 7.9374999 H 13.229167 V 10.583333 H 10.583334 V 2.6458333 Z"
     id="path4458" />
  <path
     style="fill:#000000;fill-opacity:1;stroke:none;stroke-width:0.264583px;stroke-linecap:butt;stroke-linejoin:miter;stroke-opacity:1"
     d="M 7.937501,2.6458333 V 7.9374999 H 2.645834 V 5.2916666 H 5.291668 V 2.6458333 Z"
     id="path4526" />
</svg>
